<?xml version="1.0" encoding="UTF-8"?>
<svg width="160px" height="28px" viewBox="0 0 160 28" version="1.1" xmlns="http://www.w3.org/2000/svg" xmlns:xlink="http://www.w3.org/1999/xlink">
    <!-- Generator: Sketch 50 (54983) - http://www.bohemiancoding.com/sketch -->
    <title>Logo</title>
    <desc>Created with Sketch.</desc>
    <defs></defs>
    <g id="Website_refine-Copy" stroke="none" stroke-width="1" fill="none" fill-rule="evenodd">
        <g id="Home-Copy-7" transform="translate(-63.000000, -97.000000)">
            <g id="GLOBAL-NAV" transform="translate(-31.000000, -105.000000)">
                <g id="Logo" transform="translate(94.000000, 202.000000)">
                    <path d="M12.711046,17.6189218 L9.41389786,17.6189218 C7.79395472,17.6189218 6.57244066,17.9389579 5.74826289,18.5774936 C4.92386657,19.2166878 4.51188697,20.0301678 4.51188697,21.0172751 C4.51188697,22.0344544 4.82966858,22.8332277 5.4663246,23.4135949 C6.10188783,23.9950597 7.02813163,24.2850239 8.24265187,24.2850239 C9.63092478,24.2850239 10.722179,23.9004537 11.5181629,23.1304354 C12.3130541,22.3610756 12.711046,21.351579 12.711046,20.1023845 L12.711046,17.6189218 Z M5.41452663,5.24792343 C6.3333395,5.10085608 7.33367406,5.0273224 8.41618598,5.0273224 C14.1712241,5.0273224 17.0491803,7.83060174 17.0491803,13.4360629 L17.0491803,27.5360904 L12.8030585,27.5360904 L12.8030585,26.4271586 C10.2791643,27.6945719 4.4423859,28.3282785 1.88723813,25.8318651 C0.64102715,24.6142792 0,23.0944368 0,21.2354616 C0,19.1152772 0.795109707,17.4665863 2.38598479,16.2900475 C3.97642276,15.1137282 6.2037353,14.5254588 9.06682963,14.5254588 L12.711046,14.5254588 L12.711046,13.2619966 C12.711046,11.752032 12.3488974,10.6117112 11.6265671,9.8416929 C10.903144,9.07233309 9.70261142,8.68732394 8.0258435,8.68732394 C7.12473374,8.68732394 6.25575183,8.78390548 5.41889777,8.97728807 L5.41452663,5.24792343 Z" id="Fill-1" fill="#003A70"></path>
                    <path d="M108.448695,17.6189218 L105.151505,17.6189218 C103.531541,17.6189218 102.310011,17.9389579 101.486042,18.5774936 C100.661416,19.2166878 100.249431,20.0301678 100.249431,21.0172751 C100.249431,22.0344544 100.567217,22.8332277 101.203881,23.4135949 C101.839671,23.9950597 102.76549,24.2850239 103.980462,24.2850239 C105.368535,24.2850239 106.459803,23.9004537 107.255578,23.1304354 C108.050698,22.3610756 108.448695,21.351579 108.448695,20.1023845 L108.448695,17.6189218 Z M101.152082,5.24792343 C102.070688,5.10085608 103.071254,5.0273224 104.15378,5.0273224 C109.908892,5.0273224 112.786885,7.83060174 112.786885,13.4360629 L112.786885,27.5360904 L108.540709,27.5360904 L108.540709,26.4271586 C106.016782,27.6945719 100.179929,28.3282785 97.6249672,25.8318651 C96.3785217,24.6142792 95.7377049,23.0944368 95.7377049,21.2354616 C95.7377049,19.1152772 96.5326063,17.4665863 98.1237203,16.2900475 C99.7139601,15.1137282 101.941301,14.5254588 104.804432,14.5254588 L108.448695,14.5254588 L108.448695,13.2619966 C108.448695,11.752032 108.086761,10.6117112 107.363984,9.8416929 C106.640989,9.07233309 105.440222,8.68732394 103.763433,8.68732394 C102.862311,8.68732394 101.993318,8.78390548 101.156454,8.97728807 L101.152082,5.24792343 Z" id="Fill-4" fill="#003A70"></path>
                    <path d="M25.0546705,16.5884113 C25.1109845,18.7860472 25.7765325,20.5903482 27.0506625,22.002848 C28.3247924,23.4153479 30.1085743,24.1215978 32.4020081,24.1215978 C34.1005581,24.1215978 35.6860454,23.6506915 37.1584699,22.7093171 L37.1584699,26.4756912 C35.7708424,27.3316056 34.000976,27.7595628 31.8497402,27.7595628 C28.4800362,27.7595628 25.790448,26.6897794 23.7805406,24.549555 C21.7697636,22.4095498 20.7650273,19.7418841 20.7650273,16.5456814 C20.7650273,13.435596 21.7771561,10.7749423 23.8016312,8.5630631 C25.8256713,6.35206038 28.5650507,5.24590164 32.0197692,5.24590164 C33.8881307,5.24590164 35.6010309,5.64581046 37.1584699,6.44431332 L37.1584699,10.2965857 C35.7708424,9.41240369 34.199488,8.96976489 32.4444067,8.96976489 C30.2072867,8.96976489 28.4163297,9.68324605 27.0719704,11.1097701 C25.7267415,12.5371707 25.0546705,14.362727 25.0546705,16.5884113" id="Fill-7" fill="#003A70"></path>
                    <path d="M44.2896432,16.5884113 C44.3459571,18.7860472 45.0115052,20.5903482 46.2856351,22.002848 C47.5597651,23.4153479 49.343547,24.1215978 51.6367634,24.1215978 C53.3355308,24.1215978 54.9210181,23.6506915 56.3934426,22.7093171 L56.3934426,26.4756912 C55.0058151,27.3316056 53.2359486,27.7595628 51.0847129,27.7595628 C47.7150089,27.7595628 45.0254206,26.6897794 43.0155133,24.549555 C41.0047362,22.4095498 40,19.7418841 40,16.5456814 C40,13.435596 41.0121288,10.7749423 43.0366038,8.5630631 C45.060644,6.35206038 47.8000234,5.24590164 51.2547418,5.24590164 C53.1231033,5.24590164 54.8360036,5.64581046 56.3934426,6.44431332 L56.3934426,10.2965857 C55.0058151,9.41240369 53.4344607,8.96976489 51.6793793,8.96976489 C49.4422594,8.96976489 47.6513024,9.68324605 46.3069431,11.1097701 C44.9617141,12.5371707 44.2896432,14.362727 44.2896432,16.5884113" id="Fill-9" fill="#003A70"></path>
                    <path d="M74.2105298,5.24590164 L78.4699454,5.24590164 L78.4699454,27.5409836 L74.2105298,27.5409836 L74.2105298,26.4420222 C68.5313091,28.4831059 63.798698,27.2270879 62.1762821,25.6519533 C60.8806224,24.3939775 60.3278689,22.5638978 60.3278689,20.318771 L60.3278689,5.24590164 L64.587503,5.24590164 L64.587503,19.3766487 C64.587503,20.8739075 64.9310888,21.9676482 65.6685307,22.7592397 C66.4059726,23.5510488 67.4258019,23.9465183 68.7271443,23.9465183 C70.3757881,23.9465183 71.6989871,23.370934 72.6967412,22.2193304 C73.6947139,21.0683793 74.2105298,19.2802829 74.2105298,17.1785083 L74.2105298,5.24590164 Z" id="Fill-11" fill="#003A70"></path>
                    <path d="M88.1835542,15.6085945 C88.1835542,13.5068199 88.6981243,11.7187235 89.6936866,10.5675549 C90.6890309,9.41595122 92.0092521,8.84058444 93.6539141,8.84058444 C94.4560765,8.84058444 95.1503101,8.9919853 95.7377049,9.29413443 L95.7377049,5.38925389 C95.7043451,5.38512082 95.6725115,5.38011763 95.6389336,5.37620209 C93.5592855,5.13235099 90.9870891,5.3348714 88.1835542,6.34508059 L88.1835542,5.24590164 L83.9344262,5.24590164 L83.9344262,27.5409836 L88.1835542,27.5409836 L88.1835542,15.6085945 Z" id="Fill-13" fill="#003A70"></path>
                    <path d="M122.504395,9.02214466 L122.504395,20.7350121 C122.504395,22.8421966 123.540207,23.9042317 125.551377,23.9042317 C126.728833,23.9042317 127.719904,23.586915 128.52459,22.9516237 L128.52459,26.761617 C127.576514,27.2811216 126.413026,27.5409836 125.034125,27.5409836 C120.52378,27.5409836 118.251366,25.3243719 118.251366,20.7350121 L118.251366,0 L122.504395,0 L122.504395,5.06522525 L128.175391,5.06522525 L128.175391,9.02214466 L122.504395,9.02214466 Z" id="Fill-15" fill="#003A70"></path>
                    <path d="M147.132439,14.8439766 L147.132439,14.0691349 C147.074071,12.4337445 146.625558,11.1357432 145.78646,10.1740432 C144.946705,9.21299575 143.745769,8.73225451 142.182775,8.73225451 C140.7352,8.73225451 139.491036,9.25628422 138.448967,10.303256 C137.407117,11.3508803 136.755851,12.8640188 136.495169,14.8439766 L147.132439,14.8439766 Z M149.867624,22.3761695 L149.867624,26.1638013 C148.246262,27.0824304 146.104633,27.5409836 143.442079,27.5409836 C140.026224,27.5409836 137.305302,26.5227258 135.279532,24.4851225 C133.253322,22.4481719 132.240437,19.7795142 132.240437,16.479802 C132.240437,12.9790922 133.166648,10.2319061 135.019069,8.23737382 C136.871052,6.24305903 139.230355,5.24590164 142.0961,5.24590164 C144.903258,5.24590164 147.132439,6.11428129 148.782327,7.84995294 C150.431996,9.58627719 151.256831,12.0893946 151.256831,15.3606103 C151.256831,16.2503079 151.154138,18.1206306 151.154138,18.1206306 L136.538836,18.1580458 C136.827605,20.0518617 137.638176,21.5012639 138.970112,22.5053823 C140.30095,23.5101532 141.980022,24.0117773 144.006231,24.0117773 C146.350832,24.0117773 148.30463,23.4670823 149.867624,22.3761695 Z" id="Fill-18" fill="#003A70"></path>
                    <polygon id="Fill-20" fill="#EC008C" points="160 27.5409836 153.661202 27.5409836 153.661202 21.2021858"></polygon>
                </g>
            </g>
        </g>
    </g>
</svg>